<svg width="126" height="202" viewBox="0 0 126 202" fill="none" xmlns="http://www.w3.org/2000/svg">
<g clip-path="url(#clip0_34_792)">
<path d="M74.8273 198.4L80.1174 198.4L82.6339 178.007L74.8262 178.007L74.8273 198.4Z" fill="#FFB6B6"/>
<path d="M92.9519 198.28C93.1167 198.558 93.2036 199.452 93.2036 199.775C93.2036 200.766 92.3997 201.569 91.4081 201.569H75.0252C74.3487 201.569 73.8003 201.021 73.8003 200.345V199.663C73.8003 199.663 72.9898 197.615 74.6584 195.089C74.6584 195.089 76.7323 197.067 79.8311 193.97L80.7449 192.315L87.3596 197.15L91.026 197.601C91.8282 197.7 92.5393 197.586 92.952 198.28H92.9519Z" fill="#2F2E41"/>
<path d="M38.2922 198.4L43.5823 198.4L46.0989 178.007L38.2911 178.007L38.2922 198.4Z" fill="#FFB6B6"/>
<path d="M56.4169 198.28C56.5816 198.558 56.6685 199.452 56.6685 199.775C56.6685 200.766 55.8647 201.569 54.8731 201.569H38.4901C37.8137 201.569 37.2653 201.021 37.2653 200.345V199.663C37.2653 199.663 36.4548 197.615 38.1234 195.089C38.1234 195.089 40.1972 197.067 43.296 193.97L44.2098 192.315L50.8246 197.15L54.491 197.601C55.2931 197.7 56.0043 197.586 56.4169 198.28H56.4169Z" fill="#2F2E41"/>
<path d="M-116.409 202H237.409C237.735 202 238 201.735 238 201.409C238 201.083 237.735 200.818 237.409 200.818H-116.409C-116.735 200.818 -117 201.083 -117 201.409C-117 201.735 -116.735 202 -116.409 202Z" fill="#E6E6E6"/>
<path d="M76.4087 102.087L78.3692 104.664C78.3692 104.664 78.5468 105.868 81.5204 115.673L83.1517 189.372H73.2824L60.093 130.404L46.4025 190.555L37.8482 191.059L38.2493 122.691C38.2493 122.691 37.3485 120.312 38.1148 117.524C41.0476 106.854 40.8784 109.667 40.9988 106.014C41.1514 101.383 76.4087 102.087 76.4087 102.087Z" fill="#2F2E41"/>
<path d="M60.8524 40.1556C66.5715 40.1556 71.2076 35.5221 71.2076 29.8065C71.2076 24.0908 66.5715 19.4574 60.8524 19.4574C55.1334 19.4574 50.4972 24.0908 50.4972 29.8065C50.4972 35.5221 55.1334 40.1556 60.8524 40.1556Z" fill="#FEB8B8"/>
<path d="M55.285 42.1028L49.555 45.2678C44.7743 45.6136 41.3458 46.8849 38.2993 48.4177L41.6589 77.8561L41.0476 106.854C41.0476 106.854 60.1006 119.898 78.3704 104.664V65.2634L77.5127 49.5946C77.4127 47.7676 75.796 46.3502 73.9811 46.5903C72.9445 46.7273 71.751 46.7008 70.5318 46.2947L66.7395 41.8962L55.285 42.1028V42.1028V42.1028Z" fill="#6C63FF"/>
<path d="M87.6819 17.8173C88.2597 19.1197 88.4953 20.4446 88.4187 21.5932L94.7076 33.6533L88.878 36.4762L83.1262 23.9384C82.2231 23.224 81.3989 22.1599 80.821 20.8575C79.5009 17.882 79.9667 14.7893 81.8613 13.9498C83.7559 13.1103 86.3619 14.8418 87.6819 17.8172V17.8173Z" fill="#FFB6B6"/>
<path d="M70.5319 46.2946L72.2666 47.0876C73.8582 45.3776 78.6528 45.6466 80.979 45.8683L91.2017 46.8425L86.428 31.9166L93.6147 29.0263L102.202 45.5432C102.721 48.3452 101.556 51.1923 99.2206 52.827L77.311 65.2622L74.7641 48.2291L70.5319 46.2946V46.2946V46.2946Z" fill="#6C63FF"/>
<path d="M17.5493 116.305C17.6584 114.884 18.0795 113.606 18.6918 112.631L18.8762 99.0328L25.3481 99.3098L24.4643 113.074C24.9205 114.131 25.1414 115.459 25.0323 116.879C24.783 120.124 22.9057 122.627 20.8393 122.468C18.7729 122.31 17.2999 119.55 17.5492 116.305L17.5493 116.305L17.5493 116.305Z" fill="#FFB6B6"/>
<path d="M43.0954 52.1374L40.1214 47.6227C40.1214 47.6227 35.2709 48.548 32.6937 52.203C30.1164 55.8581 20.3746 78.2739 20.3746 78.2739L18.5038 103.579L25.7499 102.087L29.2461 82.8963L40.4883 67.5429L43.0954 52.1374L43.0954 52.1374Z" fill="#6C63FF"/>
<path d="M71.2077 31.1792C71.5966 29.2065 65.5946 26.3351 65.6051 26.3384C66.5368 26.6356 65.0714 28.3417 64.1143 28.1406C64.1143 28.1406 62.7081 28.8555 63.4744 29.4705C60.8329 29.2442 57.3035 26.7354 54.662 26.5091C53.5996 26.4163 53.1881 28.9768 52.5205 29.8065C51.5103 31.0771 50.4972 28.5501 50.8711 31.9166H50.7201C50.1686 30.588 49.6171 29.2361 49.4371 27.8088C49.263 26.3815 49.5068 24.8439 50.4182 23.73C50.7201 23.3528 49.5341 22.1113 49.8534 21.7515C50.8694 20.5853 52.8391 19.947 53.7448 18.6996C54.9435 17.0471 56.3075 18.2135 58.8037 16.8237C59.4567 16.4601 60.5918 16.3292 61.3151 16.518L63.0045 16.959C62.6752 17.4527 63.0827 18.1038 63.671 18.0239L65.8724 17.7248C66.7026 17.9917 67.4921 18.3862 67.8637 19.1463C68.0901 19.5989 68.1308 20.1268 68.3049 20.6026C68.6242 21.4787 69.3789 22.1112 69.9827 22.819C71.6058 23.2914 71.6929 24.504 71.6929 26.5375C73.2055 27.3855 71.6272 29.2817 71.2076 31.1791V31.1791L71.2077 31.1792Z" fill="#2F2E41"/>
</g>
<defs>
<clipPath id="clip0_34_792">
<rect width="126" height="202" fill="white"/>
</clipPath>
</defs>
</svg>
