<svg width="154" height="154" viewBox="0 0 154 154" fill="none" xmlns="http://www.w3.org/2000/svg">
<path d="M76.9998 102.667C80.5932 108.057 85.4057 112.484 91.1165 115.5L76.9998 129.617L62.8832 115.5C68.594 112.484 73.4707 108.057 76.9998 102.667ZM109.083 71.8667C105.68 71.8667 102.415 73.2188 100.009 75.6255C97.6019 78.0322 96.2498 81.2964 96.2498 84.7C96.2498 88.1036 97.6019 91.3678 100.009 93.7745C102.415 96.1813 105.68 97.5333 109.083 97.5333C112.487 97.5333 115.751 96.1813 118.158 93.7745C120.564 91.3678 121.917 88.1036 121.917 84.7C121.917 81.2964 120.564 78.0322 118.158 75.6255C115.751 73.2188 112.487 71.8667 109.083 71.8667ZM44.9165 71.8667C41.5129 71.8667 38.2487 73.2188 35.842 75.6255C33.4353 78.0322 32.0832 81.2964 32.0832 84.7C32.0832 88.1036 33.4353 91.3678 35.842 93.7745C38.2487 96.1813 41.5129 97.5333 44.9165 97.5333C48.3201 97.5333 51.5843 96.1813 53.991 93.7745C56.3978 91.3678 57.7498 88.1036 57.7498 84.7C57.7498 81.2964 56.3978 78.0322 53.991 75.6255C51.5843 73.2188 48.3201 71.8667 44.9165 71.8667ZM109.083 55.825C115.89 55.825 122.419 58.5292 127.232 63.3426C132.046 68.156 134.75 74.6845 134.75 81.4917C134.75 88.2989 132.046 94.8273 127.232 99.6408C122.419 104.454 115.89 107.158 109.083 107.158C102.276 107.158 95.7475 104.454 90.9341 99.6408C86.1207 94.8273 83.4165 88.2989 83.4165 81.4917C83.4165 74.6845 86.1207 68.156 90.9341 63.3426C95.7475 58.5292 102.276 55.825 109.083 55.825M44.9165 55.825C51.7237 55.825 58.2521 58.5292 63.0656 63.3426C67.879 68.156 70.5832 74.6845 70.5832 81.4917C70.5832 88.2989 67.879 94.8273 63.0656 99.6408C58.2521 104.454 51.7237 107.158 44.9165 107.158C38.1093 107.158 31.5809 104.454 26.7674 99.6408C21.954 94.8273 19.2498 88.2989 19.2498 81.4917C19.2498 74.6845 21.954 68.156 26.7674 63.3426C31.5809 58.5292 38.1093 55.825 44.9165 55.825M14.3732 6.41667C25.6665 30.1583 17.5173 47.8683 9.94567 65.45C7.63567 70.5833 6.4165 75.9092 6.4165 81.4917C6.4165 91.7025 10.4727 101.495 17.6929 108.715C24.913 115.935 34.7057 119.992 44.9165 119.992C46.264 119.928 47.6115 119.863 48.959 119.671L67.9523 138.664L76.9998 147.583L86.0473 138.664L105.041 119.671C106.388 119.863 107.736 119.928 109.083 119.992C119.294 119.992 129.087 115.935 136.307 108.715C143.527 101.495 147.583 91.7025 147.583 81.4917C147.583 75.9092 146.364 70.5833 144.054 65.45C136.482 47.8683 128.333 30.1583 139.627 6.41667C122.687 19.635 98.5598 30.0942 76.9998 30.1583C55.4398 30.0942 31.3132 19.635 14.3732 6.41667Z" fill="#0070C1"/>
</svg>
