<svg width="26" height="22" viewBox="0 0 26 22" fill="none" xmlns="http://www.w3.org/2000/svg">
<g clip-path="url(#clip0_39_976)">
<path d="M26 9.16667C26 10.8281 25.4196 12.3631 24.2589 13.7715C23.0982 15.1799 21.5216 16.2923 19.529 17.1087C17.5365 17.9251 15.3601 18.3333 13 18.3333C12.3229 18.3333 11.6217 18.2951 10.8962 18.2188C8.98103 19.8898 6.75632 21.0451 4.2221 21.6849C3.74814 21.8186 3.1968 21.9236 2.56808 22C2.40365 22.0191 2.25614 21.9761 2.12556 21.8711C1.99498 21.7661 1.91034 21.6276 1.87165 21.4557V21.4414C1.84263 21.4032 1.84022 21.3459 1.8644 21.2695C1.88858 21.1931 1.89825 21.1454 1.89342 21.1263C1.88858 21.1072 1.91034 21.0618 1.95871 20.9902L2.04576 20.8613L2.14732 20.7396L2.26339 20.6107C2.3311 20.5343 2.48103 20.3696 2.71317 20.1165C2.94531 19.8635 3.11216 19.6821 3.21373 19.5723C3.31529 19.4625 3.46522 19.2739 3.6635 19.0065C3.86179 18.7391 4.01897 18.4957 4.13504 18.276C4.25112 18.0564 4.3817 17.7747 4.52679 17.431C4.67188 17.0872 4.79762 16.7244 4.90402 16.3424C3.38542 15.4926 2.18843 14.4423 1.31306 13.1914C0.437686 11.9405 0 10.599 0 9.16667C0 7.92535 0.343378 6.73893 1.03013 5.60742C1.71689 4.47591 2.64062 3.49957 3.80134 2.67839C4.96205 1.8572 6.34524 1.20551 7.95089 0.723307C9.55655 0.241102 11.2396 0 13 0C15.3601 0 17.5365 0.408203 19.529 1.22461C21.5216 2.04102 23.0982 3.15343 24.2589 4.56185C25.4196 5.97027 26 7.50521 26 9.16667Z" fill="#C4C4C4"/>
</g>
<defs>
<clipPath id="clip0_39_976">
<rect width="26" height="22" fill="white"/>
</clipPath>
</defs>
</svg>
