<svg width="22" height="21" viewBox="0 0 22 21" fill="none" xmlns="http://www.w3.org/2000/svg">
<path d="M11.6784 2.03C11.5925 1.93977 11.4878 1.86768 11.3709 1.81835C11.2541 1.76901 11.1278 1.74353 11.0001 1.74353C10.8723 1.74353 10.746 1.76901 10.6292 1.81835C10.5124 1.86768 10.4076 1.93977 10.3217 2.03L2.07172 10.78C1.95007 10.9052 1.86946 11.0616 1.83982 11.2301C1.81018 11.3985 1.83281 11.5715 1.90492 11.7277C1.97704 11.884 2.09548 12.0167 2.24565 12.1095C2.39583 12.2023 2.57117 12.2512 2.75006 12.25H4.58339V18.375C4.58339 18.6071 4.67997 18.8296 4.85188 18.9937C5.02378 19.1578 5.25694 19.25 5.50006 19.25H16.5001C16.7432 19.25 16.9763 19.1578 17.1482 18.9937C17.3201 18.8296 17.4167 18.6071 17.4167 18.375V12.25H19.2501C19.4932 12.25 19.7263 12.1578 19.8982 11.9937C20.0701 11.8296 20.1667 11.6071 20.1667 11.375C20.1684 11.1551 20.0833 10.9427 19.9284 10.78L11.6784 2.03Z" fill="#0070C1"/>
</svg>
