<svg width="25" height="25" viewBox="0 0 25 25" fill="none" xmlns="http://www.w3.org/2000/svg">
<path d="M4.16683 21.875H5.2085V8.33334H4.16683C3.6143 8.33334 3.08439 8.55284 2.69369 8.94354C2.30299 9.33424 2.0835 9.86414 2.0835 10.4167V19.7917C2.0835 20.3442 2.30299 20.8741 2.69369 21.2648C3.08439 21.6555 3.6143 21.875 4.16683 21.875ZM20.8335 8.33334H13.5418L14.7106 4.82501C14.8149 4.5119 14.8433 4.1785 14.7935 3.85225C14.7437 3.52601 14.6171 3.21627 14.4241 2.94855C14.2311 2.68082 13.9773 2.46276 13.6836 2.31234C13.3898 2.16192 13.0646 2.08343 12.7345 2.08334H12.5002L7.29183 7.74793V21.875H18.7502L22.8252 12.9208L22.9168 12.5V10.4167C22.9168 9.86414 22.6973 9.33424 22.3066 8.94354C21.9159 8.55284 21.386 8.33334 20.8335 8.33334Z" fill="#0070C1"/>
</svg>
